# xmcd
#
# Track frame offsets:
#	150
#	14958
#	25952
#	38185
#	50951
#	61079
#	70195
#	81761
#	93704
#	109700
#	122035
#	135608
#	147885
#	158366
#	169699
#	184339
#	198736
#	208815
#	221280
#	231697
#	248090
#	262667
#	270486
#	282126
#
# Disc length: 3915 seconds
#
# Revision: 0
# Processed by: cddbd v1.5.2PL0 Copyright (c) Steve Scherf et al.
# Submitted via: audiograbber 1.83.01
#
DISCID=670f4918
DTITLE=Tennessee Ernie Ford - Hymns and Spirituals
DYEAR=1950
DGENRE=Gospel
TTITLE0=Tennessee Ernie Ford - Who At My Door Is Standing
TTITLE1=Tennessee Ernie Ford - Rock Of Ages
TTITLE2=Tennessee Ernie Ford - Softly And Tenderly
TTITLE3=Tennessee Ernie Ford - Sweet Hour Of Prayer
TTITLE4=Tennessee Ernie Ford - My Task
TTITLE5=Tennessee Ernie Ford - Let The Lower Lights Be Burning
TTITLE6=Tennessee Ernie Ford - The Ninety And Nine
TTITLE7=Tennessee Ernie Ford - The Old Rugged Cross
TTITLE8=Tennessee Ernie Ford - When They Ring The Golden Bells
TTITLE9=Tennessee Ernie Ford - In The Garden
TTITLE10=Tennessee Ernie Ford - Ivory Palaces
TTITLE11=Tennessee Ernie Ford - Others
TTITLE12=Tennessee Ernie Ford - Just A Closer Walk With Thee
TTITLE13=Tennessee Ernie Ford - I Want To Be Ready
TTITLE14=Tennessee Ernie Ford - Take My Hand, Precious Lord
TTITLE15=Tennessee Ernie Ford - Stand By Me
TTITLE16=Tennessee Ernie Ford - When God Dips His Love In My Heart
TTITLE17=Tennessee Ernie Ford - Get On Board, Little Children
TTITLE18=Tennessee Ernie Ford - Noah Found Grace In The Eyes Of The Lord
TTITLE19=Tennessee Ernie Ford - Were You There
TTITLE20=Tennessee Ernie Ford - Peace In The Valley
TTITLE21=Tennessee Ernie Ford - I Know The Lord Laid His Hands On Me
TTITLE22=Tennessee Ernie Ford - Wayfaring Pilgrim
TTITLE23=Tennessee Ernie Ford - He'll Understand And Say Well Done
EXTD=
EXTT0=
EXTT1=
EXTT2=
EXTT3=
EXTT4=
EXTT5=
EXTT6=
EXTT7=
EXTT8=
EXTT9=
EXTT10=
EXTT11=
EXTT12=
EXTT13=
EXTT14=
EXTT15=
EXTT16=
EXTT17=
EXTT18=
EXTT19=
EXTT20=
EXTT21=
EXTT22=
EXTT23=Original Verse by C.M.Ledeburgh
PLAYORDER=
